<svg width="61" height="85" viewBox="0 0 61 85" fill="none" xmlns="http://www.w3.org/2000/svg">
<path d="M60.2195 16.7046L54.7334 78.1634L30.0729 85.0001L5.48034 78.173L0 16.7046H60.2195Z" fill="#424241"/>
<path d="M30.1098 79.7744L50.0366 74.2498L54.7249 21.7305H30.1098V79.7744Z" fill="#424241"/>
<path d="M19.4449 36.8082H30.1098V29.2693H11.2059L11.3863 31.2919L13.2392 52.0669H30.1098V44.5281H20.1339L19.4449 36.8082Z" fill="#EAE8DC" style="mix-blend-mode:hard-light"/>
<path d="M21.1439 55.8364H13.5761L14.6323 67.6735L30.0751 71.9605L30.1098 71.9509V64.1073L30.0767 64.1161L21.6807 61.849L21.1439 55.8364Z" fill="#EAE8DC" style="mix-blend-mode:hard-light"/>
<path d="M5.60288 0H9.43403V3.78516H12.9386V0H16.7699V11.4624H12.9388V7.6241H9.43419V11.4624H5.60305L5.60288 0Z" fill="#424241"/>
<path d="M21.808 3.80109H18.4352V0H29.0137V3.80109H25.6394V11.4624H21.8081L21.808 3.80109Z" fill="#424241"/>
<path d="M30.6926 0H34.6875L37.1448 4.02754L39.5997 0H43.596V11.4624H39.7807V5.781L37.1448 9.85651H37.0789L34.4413 5.781V11.4624H30.6926V0Z" fill="#424241"/>
<path d="M45.5027 0H49.335V7.67357H54.7227V11.4624H45.5027V0Z" fill="#424241"/>
<path d="M30.0837 52.0668H39.3669L38.4919 61.8442L30.0837 64.1136V71.9568L45.5387 67.6735L45.6521 66.3998L47.4237 46.5525L47.6076 44.5281H30.0837V52.0668Z" fill="#EAE8DC" style="mix-blend-mode:hard-light"/>
<path d="M30.0837 36.7898V36.8082H48.2936L48.4448 35.1137L48.7883 31.2919L48.9686 29.2693H30.0837V36.7898Z" fill="#EAE8DC" style="mix-blend-mode:hard-light"/>
</svg>
