<svg width="61" height="85" viewBox="0 0 61 85" fill="none" xmlns="http://www.w3.org/2000/svg">
<path d="M30.2924 85.0001L5.69985 78.173L0.219513 16.7046H60.439L54.9529 78.1634L30.2924 85.0001Z" fill="#424241"/>
<path d="M12.7831 44.5281L13.4588 52.0668H30.3293V44.5281H12.7831Z" fill="#EAE8DC" style="mix-blend-mode:hard-light"/>
<path d="M11.4254 29.2693L12.1107 36.8082H30.3293V29.2693H11.4254Z" fill="#EAE8DC" style="mix-blend-mode:hard-light"/>
<path d="M30.3293 64.1073L30.2962 64.1161L21.9002 61.849L21.3634 55.8364H13.7956L14.8518 67.6735L30.2946 71.9605L30.3293 71.9509V64.1073Z" fill="#EAE8DC" style="mix-blend-mode:hard-light"/>
<path d="M14.3918 0H23.5226V3.81836H18.2101V7.63672H23.5226V11.4551H14.3918V0Z" fill="#424241"/>
<path d="M25.3488 0H34.4797V3.32031H29.1672V3.98438H34.4797V11.6211H25.3488V8.13477H30.6613V7.4707H25.3488V0Z" fill="#424241"/>
<path d="M36.3058 0H45.4367V3.32031H40.1242V3.98438H45.4367V11.6211H36.3058V8.13477H41.6183V7.4707H36.3058V0Z" fill="#424241"/>
<path d="M47.8271 44.5281L49.1881 29.2693H30.3032V36.8082H40.9262L40.2402 44.5281H30.3032V52.0669H39.5865L38.7114 61.8442L30.3032 64.1136V71.9569L45.7583 67.6735L45.8716 66.3998L47.6432 46.5525L47.8271 44.5281Z" fill="#EAE8DC" style="mix-blend-mode:hard-light"/>
</svg>
