<svg width="111" height="48" viewBox="0 0 111 48" fill="none" xmlns="http://www.w3.org/2000/svg">
<path d="M79.291 21.7176L79.3786 19.9655V19.4399H78.6778C77.6265 19.4399 76.4876 19.7027 75.6992 20.2283C74.4727 20.9292 73.7718 22.2433 73.7718 24.083C73.7718 26.7112 75.0859 28.2005 77.3637 28.2005C78.0645 28.2005 78.5026 28.1129 79.3786 27.8501V24.083L79.291 21.7176ZM13.9368 23.9954C13.9368 26.7988 15.3385 28.2881 18.0543 28.2881C18.6675 28.2881 18.9303 28.2881 19.8064 28.1129V19.7903C18.9303 19.6151 18.7551 19.5275 18.0543 19.5275C15.4261 19.5275 13.9368 21.192 13.9368 23.9954ZM39.8682 27.412C39.8682 28.4633 40.4815 28.9013 41.8832 28.9013C42.6716 28.9013 43.4601 28.8137 44.3361 28.6385V25.1343C40.8319 25.4847 39.8682 26.0103 39.8682 27.412ZM95.0601 19.4399C93.0452 19.4399 91.8187 21.1044 91.8187 23.9954C91.8187 26.8864 92.9576 28.5509 95.0601 28.5509C97.0751 28.5509 98.2139 26.8864 98.2139 23.9954C98.2139 21.192 97.0751 19.4399 95.0601 19.4399ZM110.041 6.21133C110.041 2.8823 107.325 0.166504 103.996 0.166504H6.57788C3.24884 0.166504 0.533051 2.8823 0.533051 6.21133V41.3414C0.533051 44.7581 3.24884 47.4738 6.57788 47.4738H103.908C107.237 47.4738 109.953 44.7581 109.953 41.429V6.21133H110.041ZM8.68043 24.083C8.68043 18.8266 12.1847 15.3224 17.6163 15.3224C18.4923 15.3224 19.018 15.41 19.894 15.5852V8.05106H25.1504V31.7047C22.5222 32.2304 20.5073 32.4056 18.4047 32.4056C12.0095 32.4056 8.68043 29.6022 8.68043 24.083ZM32.9473 27.7625C32.9473 31.8799 32.7721 33.8949 31.8961 35.647C31.02 37.3115 30.0563 38.3628 27.7786 39.5017L22.9602 37.2239C25.238 36.1726 26.2017 35.209 26.9025 33.7197C27.6034 32.2304 27.691 30.4782 27.691 26.0103V15.9356H32.9473V27.7625ZM32.9473 13.3074H27.691V8.05106H32.9473V13.3074ZM48.7165 31.9676C46.9643 32.318 43.6353 32.5808 41.4451 32.5808C37.0648 32.5808 35.2251 31.0915 35.2251 27.6748C35.2251 23.9954 38.1161 22.3309 44.2485 21.8052V20.6664C44.2485 19.7027 43.8105 19.3523 42.4964 19.3523C40.5691 19.3523 38.1161 19.8779 36.364 20.9292V16.8993C38.9922 15.848 40.8319 15.3224 43.1973 15.3224C45.8254 15.3224 47.4024 16.0232 48.1908 17.4249C48.6288 18.2134 48.6288 19.177 48.6288 21.3672V31.9676H48.7165ZM67.1138 32.5808H61.8574V22.2433C61.8574 20.2283 60.9813 19.5275 59.1416 19.5275C58.4407 19.5275 57.4771 19.6151 56.601 19.8779V32.5808H51.3446V16.5489C54.8489 15.7604 57.039 15.41 59.5796 15.41C62.2078 15.41 64.3104 16.0232 65.4492 17.1621C66.5881 18.301 67.1138 19.4399 67.1138 22.0681V32.5808ZM84.0217 22.4185L84.635 27.3244V28.8137C84.635 33.2816 84.1094 35.3842 82.9705 37.0487C81.3936 39.5893 78.5026 40.8158 74.4727 40.8158C72.4577 40.8158 70.5304 40.553 68.7783 39.7645V34.9462C70.5304 35.9098 72.4577 36.3479 74.3851 36.3479C77.8017 36.3479 79.291 34.9462 79.291 31.7047V31.6171C78.415 32.1428 77.1885 32.318 75.8744 32.318C71.3188 32.318 68.4278 29.3394 68.4278 24.6086C68.4278 18.739 72.7205 15.41 80.2547 15.41C82.4448 15.41 84.5474 15.6728 87.0004 16.1108L84.9854 19.8779C83.5837 19.6151 86.1243 19.8779 84.3722 19.7027M94.9725 32.6684C89.8038 32.6684 86.5623 29.427 86.5623 24.1706C86.5623 18.739 89.8914 15.3224 95.1477 15.3224C100.316 15.3224 103.47 18.5638 103.47 23.9078C103.558 29.2518 100.229 32.6684 94.9725 32.6684Z" fill="#424241"/>
</svg>
