<svg width="104" height="75" viewBox="0 0 104 75" fill="none" xmlns="http://www.w3.org/2000/svg">
<path d="M60.593 33.5382H69.7754C69.9884 33.5382 70.1927 33.4546 70.3438 33.3056C70.4948 33.1567 70.5802 32.9545 70.5814 32.7433V24.6352C70.5814 24.4232 70.4964 24.2199 70.3453 24.0701C70.1941 23.9202 69.9891 23.836 69.7754 23.836H60.593C60.3804 23.836 60.1765 23.9197 60.0262 24.0688C59.8758 24.2179 59.7914 24.4201 59.7914 24.6309V32.7433C59.7914 33.1815 60.151 33.5382 60.593 33.5382ZM47.7924 10.2065H56.9704C57.1841 10.2065 57.3891 10.1223 57.5403 9.97242C57.6914 9.82253 57.7764 9.61925 57.7764 9.40729V1.29491C57.7752 1.08369 57.6898 0.881513 57.5388 0.732561C57.3877 0.583609 57.1834 0.499997 56.9704 0.5H47.7924C47.5798 0.5 47.3758 0.58375 47.2255 0.732824C47.0752 0.881899 46.9907 1.08409 46.9907 1.29491V9.40729C46.9907 9.84556 47.346 10.2065 47.7924 10.2065ZM47.7924 21.8723H56.9704C57.1838 21.8712 57.3881 21.7866 57.539 21.637C57.6899 21.4874 57.7752 21.2847 57.7764 21.0731V12.965C57.7752 12.7538 57.6898 12.5517 57.5388 12.4027C57.3877 12.2537 57.1834 12.1701 56.9704 12.1701H47.7924C47.5798 12.1701 47.3758 12.2539 47.2255 12.403C47.0752 12.552 46.9907 12.7542 46.9907 12.965V21.0731C46.9907 21.5114 47.346 21.868 47.7924 21.8723ZM35.0957 21.8723H44.2824C44.4946 21.8701 44.6974 21.7849 44.8467 21.6352C44.996 21.4856 45.0797 21.2836 45.0797 21.0731V12.965C45.0797 12.7542 44.9952 12.552 44.8449 12.403C44.6946 12.2539 44.4907 12.1701 44.278 12.1701H35.1001C34.8874 12.1701 34.6835 12.2539 34.5332 12.403C34.3828 12.552 34.2984 12.7542 34.2984 12.965V21.0731C34.2984 21.5114 34.6581 21.868 35.1001 21.8723M22.2561 21.8723H31.4384C31.6514 21.8712 31.8553 21.7865 32.0055 21.6367C32.1557 21.487 32.2401 21.2844 32.2401 21.0731V12.965C32.2401 12.7542 32.1556 12.552 32.0052 12.403C31.8549 12.2539 31.651 12.1701 31.4384 12.1701H22.2561C22.043 12.1701 21.8387 12.2537 21.6877 12.4027C21.5366 12.5517 21.4512 12.7538 21.4501 12.965V21.0731C21.4501 21.5114 21.8141 21.868 22.2561 21.8723ZM47.7924 33.5382H56.9704C57.1834 33.5382 57.3877 33.4546 57.5388 33.3056C57.6898 33.1567 57.7752 32.9545 57.7764 32.7433V24.6352C57.7764 24.4232 57.6914 24.2199 57.5403 24.0701C57.3891 23.9202 57.1841 23.836 56.9704 23.836H47.7924C47.5798 23.836 47.3758 23.9197 47.2255 24.0688C47.0752 24.2179 46.9907 24.4201 46.9907 24.6309V32.7433C46.9907 33.1815 47.346 33.5382 47.7924 33.5382ZM35.0957 33.5382H44.2824C44.4942 33.537 44.697 33.4528 44.8464 33.3038C44.9958 33.1549 45.0797 32.9534 45.0797 32.7433V24.6352C45.0803 24.5308 45.0601 24.4273 45.0203 24.3307C44.9806 24.234 44.922 24.1461 44.848 24.0718C44.7739 23.9976 44.6859 23.9386 44.5888 23.8981C44.4918 23.8577 44.3877 23.8365 44.2824 23.836H35.0957C34.8839 23.8371 34.6811 23.9214 34.5317 24.0703C34.3822 24.2193 34.2984 24.4208 34.2984 24.6309V32.7433C34.2984 33.1815 34.6581 33.5382 35.1001 33.5382M22.2561 33.5382H31.4384C31.651 33.5382 31.8549 33.4544 32.0052 33.3054C32.1556 33.1563 32.2401 32.9541 32.2401 32.7433V24.6352C32.2406 24.5308 32.2204 24.4273 32.1807 24.3307C32.1409 24.234 32.0824 24.1461 32.0083 24.0718C31.9343 23.9976 31.8462 23.9386 31.7492 23.8981C31.6521 23.8577 31.548 23.8365 31.4427 23.836H22.2561C22.0423 23.836 21.8373 23.9202 21.6861 24.0701C21.535 24.2199 21.4501 24.4232 21.4501 24.6352V32.7433C21.4501 33.1815 21.8141 33.5382 22.2561 33.5382ZM9.60273 33.5382H18.7894C19.0013 33.537 19.2041 33.4528 19.3535 33.3038C19.5029 33.1549 19.5867 32.9534 19.5867 32.7433V24.6352C19.5873 24.5308 19.5671 24.4273 19.5274 24.3307C19.4876 24.234 19.429 24.1461 19.355 24.0718C19.281 23.9976 19.1929 23.9386 19.0958 23.8981C18.9988 23.8577 18.8947 23.8365 18.7894 23.836H9.60273C9.39087 23.8371 9.18807 23.9214 9.03867 24.0703C8.88926 24.2193 8.8054 24.4208 8.8054 24.6309V32.7433C8.8054 33.1815 9.1564 33.5382 9.60273 33.5382ZM102.973 28.4336C102.691 28.2144 100.061 26.2422 94.5057 26.2422C93.041 26.2465 91.5763 26.3711 90.129 26.616C89.0543 19.3114 82.966 15.7451 82.693 15.5904L81.2023 14.7353L80.223 16.1404C78.9924 18.0224 78.0997 20.1021 77.571 22.2848C76.5743 26.4527 77.181 30.3714 79.3174 33.7186C76.739 35.1452 72.6007 35.4932 71.76 35.5233H3.2544C2.3943 35.5244 1.56962 35.8631 0.960627 36.4654C0.35163 37.0677 0.00784219 37.8845 0.00440711 38.7373C-0.0758389 44.6877 0.940383 50.6026 3.00307 56.191C5.36474 62.3268 8.87473 66.8471 13.4464 69.6142C18.5597 72.7208 26.8797 74.4997 36.3047 74.4997C40.5636 74.5126 44.8144 74.1299 49.0014 73.3567C54.8204 72.2968 60.4197 70.2795 65.5677 67.3885C69.8114 64.9528 73.6305 61.8536 76.8777 58.2105C82.303 52.1176 85.5357 45.3329 87.9407 39.3045H88.8983C94.8437 39.3045 98.4967 36.9456 100.512 34.969C101.851 33.7101 102.895 32.1761 103.575 30.4746L104 29.2371L102.973 28.4336Z" fill="#424241"/>
</svg>
