<svg width="86" height="85" viewBox="0 0 86 85" fill="none" xmlns="http://www.w3.org/2000/svg">
<path d="M76.3319 0H9.54617C4.51827 0 0.439026 4.07924 0.439026 9.10714V75.8929C0.439026 80.9208 4.51827 85 9.54617 85H76.3319C81.3598 85 85.439 80.9208 85.439 75.8929V9.10714C85.439 4.07924 81.3598 0 76.3319 0ZM46.6957 66.2924C46.6957 74.5647 41.8386 78.3404 34.7616 78.3404C28.3676 78.3404 24.6678 75.0391 22.7705 71.0357L29.2783 67.1083C30.5305 69.3281 31.6689 71.2065 34.4201 71.2065C37.0384 71.2065 38.708 70.1819 38.708 66.1786V39.0279H46.6957V66.2924ZM65.593 78.3404C58.1745 78.3404 53.3743 74.8114 51.0406 70.1819L57.5484 66.4252C59.256 69.2143 61.4948 71.2824 65.4223 71.2824C68.7236 71.2824 70.8486 69.6317 70.8486 67.3359C70.8486 64.6038 68.6857 63.6362 65.0238 62.0234L63.0317 61.1696C57.2638 58.7221 53.4502 55.6295 53.4502 49.1217C53.4502 43.1261 58.0227 38.5725 65.1377 38.5725C70.2225 38.5725 73.8654 40.3371 76.4837 44.9665L70.2605 48.9509C68.8944 46.5033 67.4145 45.5357 65.1187 45.5357C62.785 45.5357 61.3051 47.0156 61.3051 48.9509C61.3051 51.3415 62.785 52.3092 66.2192 53.808L68.2114 54.6618C75.0038 57.5647 78.8174 60.5435 78.8174 67.2221C78.8174 74.394 73.1634 78.3404 65.593 78.3404Z" fill="#424241"/>
</svg>
