<svg width="110" height="67" viewBox="0 0 110 67" fill="none" xmlns="http://www.w3.org/2000/svg">
<path d="M54.3641 67C54.0031 67 53.6422 66.8974 53.3156 66.7265L50.0156 64.778C49.5172 64.5045 49.7578 64.4019 49.9297 64.3507C50.5828 64.1285 50.7203 64.0772 51.425 63.667C51.4938 63.6328 51.5969 63.6499 51.6656 63.6841L54.2094 65.1882C54.2953 65.2395 54.4328 65.2395 54.5188 65.1882L64.4531 59.4793C64.5391 59.428 64.6078 59.3255 64.6078 59.2058V47.8052C64.6078 47.6855 64.5563 47.583 64.4531 47.5317L54.5188 41.8399C54.4328 41.7886 54.3125 41.7886 54.2094 41.8399L44.275 47.5317C44.1719 47.583 44.1203 47.7026 44.1203 47.8052V59.2058C44.1203 59.3084 44.1891 59.4109 44.275 59.4622L46.9906 61.0176C48.4687 61.7526 49.3797 60.8809 49.3797 60.0263V48.7623C49.3797 48.6085 49.5 48.4718 49.6719 48.4718H50.9266C51.0812 48.4718 51.2188 48.5914 51.2188 48.7623V60.0263C51.2188 61.9919 50.1531 63.1029 48.2797 63.1029C47.7125 63.1029 47.2484 63.1029 45.9938 62.4876L43.3812 61.0005C42.7453 60.6245 42.3328 59.9408 42.3328 59.2058V47.8052C42.3328 47.0702 42.7281 46.3694 43.3812 46.0105L53.3156 40.3016C53.9516 39.9426 54.7766 39.9426 55.3953 40.3016L65.3297 46.0105C65.9656 46.3865 66.3781 47.0702 66.3781 47.8052V59.2058C66.3781 59.9408 65.9828 60.6416 65.3297 61.0005L55.3953 66.7094C55.1031 66.8974 54.7422 67 54.3641 67ZM62.3906 55.7532C62.3906 53.6166 60.9469 53.0525 57.8875 52.6423C54.7937 52.2321 54.4844 52.027 54.4844 51.3091C54.4844 50.7109 54.7422 49.9246 57.0281 49.9246C59.0734 49.9246 59.8297 50.369 60.1391 51.7364C60.1734 51.8732 60.2766 51.9586 60.4141 51.9586H61.7031C61.7891 51.9586 61.8578 51.9244 61.9094 51.8732C61.9609 51.8048 61.9953 51.7364 61.9781 51.651C61.7719 49.2922 60.2078 48.1983 57.0281 48.1983C54.1922 48.1983 52.5078 49.3948 52.5078 51.3775C52.5078 53.5482 54.1922 54.1294 56.9078 54.4028C60.1563 54.7276 60.4141 55.1891 60.4141 55.8215C60.4141 56.9325 59.5203 57.394 57.4234 57.394C54.7938 57.394 54.2094 56.7445 54.0203 55.4455C54.0031 55.3088 53.8828 55.2062 53.7281 55.2062H52.4391C52.2844 55.2062 52.1469 55.3258 52.1469 55.4968C52.1469 57.1547 53.0578 59.1375 57.4062 59.1375C60.5859 59.1375 62.3906 57.9068 62.3906 55.7532ZM71.7578 47.1898C71.7578 48.2325 70.8984 49.0871 69.85 49.0871C68.8016 49.0871 67.9422 48.2325 67.9422 47.1898C67.9422 46.113 68.8359 45.2926 69.85 45.2926C70.8812 45.2755 71.7578 46.113 71.7578 47.1898ZM71.4484 47.1898C71.4484 46.301 70.7266 45.6002 69.8328 45.6002C68.9562 45.6002 68.2344 46.301 68.2344 47.1898C68.2344 48.0786 68.9562 48.7965 69.8328 48.7965C70.7266 48.7794 71.4484 48.0615 71.4484 47.1898ZM70.675 48.2496H70.2281C70.2109 48.147 70.1422 47.6 70.1422 47.583C70.1078 47.4633 70.0734 47.3949 69.9187 47.3949H69.5406V48.2496H69.1281V46.113H69.8672C70.125 46.113 70.6234 46.113 70.6234 46.6771C70.6234 47.0702 70.3656 47.1556 70.2109 47.2069C70.5031 47.224 70.5203 47.412 70.5719 47.6855C70.5891 47.8564 70.6234 48.147 70.675 48.2496ZM70.1937 46.7454C70.1937 46.4549 69.9875 46.4549 69.8844 46.4549H69.5406V47.0531H69.8672C70.1422 47.0531 70.1937 46.8651 70.1937 46.7454ZM23.5984 22.3887C23.5984 21.9272 23.3578 21.5169 22.9625 21.2947L12.4266 15.2611C12.2547 15.1585 12.0484 15.1073 11.8422 15.0902H11.7391C11.5328 15.0902 11.3438 15.1585 11.1547 15.2611L0.635938 21.2947C0.240625 21.5169 0 21.9442 0 22.3887L0.0171875 38.6265C0.0171875 38.8487 0.1375 39.0538 0.326562 39.1735C0.515625 39.2931 0.75625 39.2931 0.9625 39.1735L7.21875 35.6011C7.61406 35.3618 7.85469 34.9516 7.85469 34.5072V26.9182C7.85469 26.4738 8.09531 26.0464 8.49063 25.8242L11.1547 24.303C11.3609 24.1834 11.5672 24.1321 11.7906 24.1321C12.0141 24.1321 12.2375 24.1834 12.4266 24.303L15.0906 25.8242C15.4859 26.0464 15.7266 26.4738 15.7266 26.9182V34.5072C15.7266 34.9516 15.9672 35.3789 16.3625 35.6011L22.6188 39.1735C22.8078 39.2931 23.0656 39.2931 23.2547 39.1735C23.4438 39.0709 23.5641 38.8487 23.5641 38.6265L23.5984 22.3887ZM81.2109 4.66376V34.8149C81.2109 35.2593 80.9703 35.6866 80.575 35.9088L70.0391 41.9595C69.6438 42.1817 69.1625 42.1817 68.7672 41.9595L58.2312 35.9088C57.8359 35.6866 57.5953 35.2593 57.5953 34.8149V22.7134C57.5953 22.269 57.8359 21.8417 58.2312 21.6195L68.7672 15.5688C69.1625 15.3466 69.6438 15.3466 70.0391 15.5688L72.6687 17.0729C72.9609 17.2438 73.3391 17.0216 73.3391 16.6969V0.629939C73.3391 0.15135 73.8547 -0.156315 74.2844 0.08298L80.5578 3.56984C80.9531 3.77495 81.2109 4.20227 81.2109 4.66376ZM73.3047 26.696C73.3047 26.5763 73.2359 26.4738 73.15 26.4225L69.5406 24.3372C69.4375 24.2859 69.3172 24.2859 69.2141 24.3372L65.6047 26.4225C65.5016 26.4738 65.45 26.5763 65.45 26.696V30.8494C65.45 30.9691 65.5188 31.0716 65.6047 31.1229L69.2141 33.1911C69.3172 33.2424 69.4375 33.2424 69.5234 33.1911L73.1328 31.1229C73.2359 31.0716 73.2875 30.9691 73.2875 30.8494V26.696H73.3047ZM109.364 26.5763C109.759 26.3541 110 25.9268 110 25.4824V22.5596C110 22.1152 109.759 21.6879 109.364 21.4657L98.8969 15.4149C98.5016 15.1927 98.0203 15.1927 97.625 15.4149L87.0891 21.4657C86.6938 21.6879 86.4531 22.1152 86.4531 22.5596V34.661C86.4531 35.1225 86.6938 35.5328 87.0891 35.755L97.5562 41.6861C97.9344 41.9083 98.4156 41.9083 98.8109 41.6861L105.136 38.1821C105.566 37.9428 105.566 37.3275 105.136 37.0882L94.5312 31.0374C94.325 30.9178 94.2047 30.7127 94.2047 30.4905V26.696C94.2047 26.4738 94.325 26.2686 94.5312 26.149L97.8313 24.2517C98.0203 24.1321 98.2781 24.1321 98.4672 24.2517L101.767 26.149C101.956 26.2686 102.094 26.4738 102.094 26.696V29.67C102.094 30.1486 102.627 30.4563 103.056 30.217L109.364 26.5763ZM96.0781 27.1745C96.0094 27.2258 95.9578 27.2942 95.9578 27.3797V29.7042C95.9578 29.7897 96.0094 29.8752 96.0781 29.9093L98.1062 31.0716C98.175 31.1229 98.2781 31.1229 98.3469 31.0716L100.375 29.9093C100.444 29.8581 100.495 29.7897 100.495 29.7042V27.3797C100.495 27.2942 100.444 27.2087 100.375 27.1745L98.3469 26.0123C98.2781 25.961 98.175 25.961 98.1062 26.0123L96.0781 27.1745ZM52.3875 34.6098V22.5767C52.3875 22.1323 52.1125 21.705 51.7172 21.4828L41.2156 15.4662C40.8547 15.2611 40.3562 15.2269 39.9437 15.4662L29.4422 21.4828C29.0469 21.705 28.7719 22.1152 28.7719 22.5767V34.6098C28.7719 35.0884 29.0984 35.4986 29.4594 35.7037L39.9781 41.7202C40.3906 41.9595 40.8719 41.9424 41.25 41.7202L51.7344 35.7037C52.0437 35.5328 52.2672 35.2422 52.3531 34.9003C52.3703 34.8149 52.3875 34.7123 52.3875 34.6098ZM39.6172 13.2613L39.4797 13.3467H39.6688L39.6172 13.2613ZM52.7141 35.5157L52.6453 35.396V35.5499L52.7141 35.5157Z" fill="#424241"/>
</svg>
