<svg width="85" height="75" viewBox="0 0 85 75" fill="none" xmlns="http://www.w3.org/2000/svg">
<path d="M42.5 29.9837C38.3217 29.9837 34.9191 33.3582 34.9191 37.5018C34.9191 41.6454 38.3217 45.0199 42.5 45.0199C46.6783 45.0199 50.0809 41.6454 50.0809 37.5018C50.0809 33.3582 46.6783 29.9837 42.5 29.9837ZM21.2766 52.4431L19.6031 52.0322C7.15062 48.9027 0 43.6079 0 37.4886C0 31.3693 7.15328 26.0745 19.6031 22.9451L21.2766 22.5341L21.7467 24.1805C23.0058 28.4875 24.6234 32.6864 26.5758 36.7484L26.9344 37.4886L26.5758 38.242C24.6261 42.2882 23.0058 46.4871 21.7467 50.8099L21.2766 52.4431ZM18.8302 26.7858C9.36594 29.42 3.55672 33.4662 3.55672 37.4886C3.55672 41.5111 9.36859 45.5415 18.8302 48.1915C19.9936 44.5273 21.3908 40.9605 23.0217 37.4886C21.3881 34.0167 19.9909 30.45 18.8302 26.7858ZM63.7234 52.4431L63.2533 50.7967C61.9942 46.4898 60.3766 42.2908 58.4242 38.242L58.0656 37.4886L58.4242 36.7352C60.3739 32.6891 61.9942 28.4901 63.2533 24.1673L63.7234 22.5341L65.3969 22.9451C77.8494 26.0745 85 31.3693 85 37.4886C85 43.6079 77.8467 48.9027 65.3969 52.0322L63.7234 52.4431ZM61.9783 37.4886C63.6809 41.137 65.0914 44.7196 66.1698 48.1915C75.6473 45.5441 81.4433 41.5111 81.4433 37.4886C81.4433 33.4662 75.6314 29.4358 66.1698 26.7858C65.0064 30.4342 63.6092 34.0167 61.9783 37.4886ZM18.8009 26.7726L18.3308 25.1262C14.8298 12.8876 15.895 4.10771 21.25 1.04674C26.5067 -1.95891 34.9323 1.59466 43.7723 10.5958L44.9756 11.8181L43.7723 13.0404C40.6327 16.2778 37.7692 19.7629 35.1953 23.4666L34.7119 24.1384L33.8805 24.2069C29.3569 24.5625 24.8731 25.2764 20.4744 26.3485L18.8009 26.7726ZM25.5239 3.4913C24.5703 3.4913 23.7256 3.6836 23.0191 4.09454C19.5048 6.11236 18.8833 13.1089 21.3031 22.5473C25.0803 21.7096 28.8973 21.1195 32.7595 20.7771C34.9722 17.6476 37.408 14.6578 40.0217 11.8444C34.502 6.50749 29.2719 3.4913 25.5239 3.4913ZM59.4894 74.9974C59.4761 74.9974 59.4761 74.9974 59.4894 74.9974C54.4398 74.9974 47.9506 71.2383 41.2277 64.3788L40.0244 63.1565L41.2277 61.9342C44.3673 58.6968 47.2308 55.2117 49.8047 51.508L50.2748 50.8362L51.1062 50.7546C55.6298 50.4121 60.1136 49.6983 64.5256 48.613L66.1991 48.202L66.6692 49.8484C70.1702 62.087 69.105 70.8537 63.75 73.9121C62.4484 74.6523 60.9822 75.0263 59.4894 74.9974ZM44.9756 63.1302C50.4953 68.4671 55.7255 71.4859 59.4734 71.4859H59.4867C60.427 71.4859 61.2717 71.2805 61.9783 70.8827C65.4925 68.8649 66.13 61.8684 63.6942 52.43C59.917 53.2676 56.0841 53.8577 52.2378 54.187C50.0252 57.3296 47.5894 60.3037 44.9756 63.1302ZM66.1991 26.7726L64.5256 26.3485C60.1136 25.279 55.6298 24.5651 51.1062 24.2069L50.2748 24.1384L49.8047 23.4666C47.2308 19.7629 44.3673 16.2778 41.2277 13.0404L40.0244 11.8181L41.2277 10.5958C50.0677 1.59466 58.4933 -1.95891 63.75 1.04674C69.105 4.10508 70.1702 12.8876 66.6692 25.1262L66.1991 26.7726ZM52.2405 20.7771C56.2806 21.1485 60.1269 21.7386 63.6969 22.5473C66.1327 13.1089 65.4952 6.10972 61.9809 4.09454C58.48 2.09253 51.8952 5.16404 44.9783 11.8471C47.592 14.6736 50.0145 17.6503 52.2405 20.7797V20.7771ZM25.5239 74.9974C24.0284 75.0237 22.5489 74.6549 21.25 73.9147C15.895 70.8564 14.8298 62.087 18.3308 49.851L18.8009 48.2047L20.4744 48.6156C24.5703 49.6456 29.0806 50.3568 33.8805 50.7572L34.7119 50.8389L35.182 51.5106C37.7559 55.2143 40.6194 58.6994 43.7591 61.9369L44.9623 63.1592L43.7591 64.3814C37.0494 71.241 30.5602 75 25.5239 75V74.9974ZM21.3058 52.43C18.87 61.8684 19.5075 68.8675 23.0217 70.8827C26.5227 72.8584 33.0942 69.8132 40.0244 63.1302C37.4106 60.3037 34.9748 57.327 32.7622 54.1843C28.9027 53.8551 25.083 53.2676 21.3058 52.43ZM42.5 54.6374C39.5808 54.6374 36.5925 54.5136 33.5909 54.266L32.7595 54.1975L32.2761 53.5126C30.5894 51.097 28.9823 48.6156 27.5028 46.063C26.0073 43.5105 24.6394 40.9052 23.367 38.242L23.0084 37.4886L23.367 36.7352C24.6394 34.0747 26.01 31.4668 27.5028 28.9142C28.9691 26.4038 30.5734 23.8934 32.2761 21.4646L32.7595 20.7797L33.5909 20.7112C39.525 20.216 45.4883 20.216 51.4091 20.7112L52.2405 20.7797L52.7239 21.4646C56.1133 26.2932 59.1016 31.4115 61.633 36.7352L61.9916 37.4886L61.633 38.242C59.1016 43.5658 56.1266 48.6841 52.7239 53.5126L52.2405 54.1975L51.4091 54.266C48.4208 54.5136 45.4192 54.6374 42.5 54.6374ZM34.7252 50.8231C39.9553 51.2208 45.0447 51.2208 50.2881 50.8231C53.2073 46.5846 55.8078 42.1249 58.063 37.486C55.8211 32.8498 53.2206 28.39 50.2748 24.1489C45.1005 23.7511 39.8995 23.7511 34.7252 24.1489C31.7794 28.3874 29.1762 32.8471 26.937 37.486C29.1922 42.1222 31.7927 46.582 34.7252 50.8231Z" fill="#424241"/>
</svg>
