<svg width="56" height="72" viewBox="0 0 56 72" fill="none" xmlns="http://www.w3.org/2000/svg">
<path d="M17.1816 43.9767C15.0732 42.318 12.8232 40.7284 11.2861 38.4885C8.05075 34.5389 5.56043 29.967 3.85786 25.1616C2.82828 22.0366 2.47604 18.6865 1.14816 15.6829C-0.239095 13.5006 1.38709 11.1167 3.77713 10.4235C4.84038 10.2186 6.71129 9.21469 4.45302 9.93293C2.42789 11.4179 2.23276 8.58369 4.30894 8.40413C5.72587 8.21624 6.24754 7.0567 5.76244 6.013C4.24088 5.02035 9.45068 3.9314 6.82894 2.45075C4.09969 -0.494992 10.6482 -1.06191 9.03218 2.28386C8.64591 4.85636 13.6095 1.81142 12.4569 4.7825C13.628 6.20958 16.8409 5.10796 16.7602 7.10883C18.4656 7.22613 19.051 8.66008 20.6504 8.77049C22.3106 9.51987 25.3172 10.1096 25.8812 11.9791C24.2355 13.2816 20.4256 9.28818 20.2417 12.8942C20.7395 18.2224 20.6124 23.711 22.5612 28.7847C23.4829 31.8564 25.7187 34.2743 27.7366 36.6672C29.6683 39.0102 32.2846 40.6607 34.9516 42.0494C37.2906 43.1524 39.812 43.8833 42.3617 44.3431C43.3953 43.5525 45.2209 40.6125 46.833 41.8513C46.9108 43.2458 43.6331 44.7645 46.6792 44.6103C48.4693 44.0701 49.7096 45.9932 51.183 44.258C52.5406 45.8661 56.8254 43.2313 55.8596 46.5181C54.553 47.3609 52.6481 46.8515 51.3401 48.0114C49.1836 46.9337 47.4665 48.9744 45.0783 48.717C42.4269 49.192 39.7284 49.3831 37.0404 49.3871C32.6296 49.0392 28.1257 48.8922 23.9299 47.3565C21.5656 46.6694 19.2592 45.3231 17.1816 43.9767ZM20.9064 45.5917C23.2142 46.5887 25.4714 47.6407 28.0012 47.9589C32.0145 48.5161 36.1593 49.3759 40.1867 48.5925C38.364 47.7696 36.4789 48.9121 34.6631 48.0042C32.4855 48.4723 30.148 47.884 27.9331 47.594C25.416 46.4729 22.6984 45.7021 20.3409 44.2454C17.3937 43.1694 21.8639 45.6257 22.66 45.8252C24.5012 46.87 20.6349 45.2891 20.0889 44.855C18.5464 43.9894 18.3498 44.1704 19.9365 45.0487C20.2558 45.2355 20.5715 45.432 20.9064 45.5917ZM16.514 42.4878C18.7513 43.3164 16.5042 40.9152 15.4804 41.0538C15.0265 40.2661 13.7453 39.7683 14.6489 39.3454C13.0242 39.9098 12.9463 37.2001 12.1828 37.5878C10.4632 37.0448 11.5138 35.1214 9.4648 33.9394C9.27799 32.6948 7.42989 31.616 6.84161 29.7393C6.58132 28.7778 4.75277 26.0188 5.87575 28.5866C6.83148 31.0585 8.51305 33.177 9.91297 35.2912C10.999 37.3047 12.2831 39.4106 14.2615 40.6664C14.9291 41.3069 15.5724 42.2868 16.514 42.4878ZM10.0715 35.4128C10.4803 36.1438 10.149 35.0747 10.0715 35.4128ZM19.194 43.4804C19.6889 43.2585 18.4812 43.2006 19.194 43.4804ZM20.4071 43.9232C20.2815 43.3121 19.8529 44.2653 20.4071 43.9232ZM21.9276 44.5567C22.6502 43.8678 20.8119 44.1223 21.9276 44.5567ZM24.5323 46.0087C24.9722 45.3596 23.1252 45.7644 24.5323 46.0087ZM19.5307 42.5218C20.6533 41.7949 18.0783 42.5116 19.5307 42.5218ZM20.6703 43.0902C20.6378 42.7068 20.2645 43.2625 20.6703 43.0902ZM26.3678 46.6466C27.284 47.2251 31.7177 47.9137 28.9417 46.8841C28.4762 46.9818 23.7942 45.5591 26.3678 46.6466ZM17.3231 39.6014C17.2341 39.2169 15.9004 39.1757 17.3231 39.6014ZM19.9745 41.1487C20.666 40.6664 18.542 40.7765 19.9745 41.1487ZM22.206 42.516C23.1972 42.1428 20.5997 42.1413 22.206 42.516ZM16.2425 38.4263C17.3173 39.2506 20.5784 38.5323 17.8886 37.9343C16.6653 37.2823 13.9078 36.8356 15.7874 38.3274L16.2425 38.4263ZM23.7178 42.9884C24.166 42.226 21.8397 42.5526 23.7178 42.9884ZM21.4465 41.1838C24.074 41.9263 19.2364 39.5207 20.7978 40.9094L21.1442 41.0665L21.4465 41.1838ZM26.0003 43.8156C28.4892 43.8395 23.7518 43.4721 26.0003 43.8156ZM15.2853 36.9865C15.1876 36.5228 14.6717 37.0249 15.2853 36.9865ZM30.2102 46.1771C30.2765 45.3401 29.3982 46.8008 30.2102 46.1771ZM19.5332 39.5873C19.3819 39.146 18.7556 39.5688 19.5332 39.5873ZM15.5214 36.6955C16.9499 36.6093 13.5643 36.0663 15.5214 36.6955ZM10.7684 33.6237C10.5903 32.9381 9.21428 32.3922 10.7684 33.6237ZM23.2454 41.5418C23.1223 41.6066 22.984 41.2431 23.2454 41.5418ZM31.0103 46.3074C30.9864 45.8505 30.5875 46.4797 31.0103 46.3074ZM22.5583 40.8319C22.6984 40.2436 21.3393 40.6534 22.5583 40.8319ZM16.7729 37.165C17.8365 37.0517 15.0688 36.4464 16.7729 37.165ZM26.5589 43.2458C28.2162 42.5895 24.944 42.9262 26.5589 43.2458ZM21.4693 39.7911C23.3782 40.0369 19.1969 38.4914 21.0494 39.6524L21.4693 39.7911ZM28.1044 43.8707C29.8877 42.806 29.2994 46.3668 31.1294 44.1719C32.9337 42.8541 29.5709 45.8009 31.7941 44.4068C33.4032 43.3305 35.7788 44.9173 37.2794 45.4335C38.3582 45.381 39.4077 46.3668 40.5147 45.7669C42.6445 45.1928 36.349 44.9158 37.999 43.8989C36.0503 44.4662 34.6109 43.223 33.6519 41.9744C31.4657 41.4694 28.9388 40.3522 27.847 38.4165C27.4017 37.691 28.4892 38.5197 27.4625 37.3319C26.1459 36.1608 25.4884 34.83 24.6044 33.4062C23.548 32.8432 23.4235 31.1845 23.3174 33.3512C23.3261 31.9834 22.042 31.0628 21.7282 31.4448C21.7224 30.1281 23.1027 30.7884 22.1369 29.8142C21.9291 28.4494 21.2445 27.0271 21.0392 25.4856C20.7199 24.7431 20.994 23.1524 19.9477 24.8336C19.5673 26.6111 19.8218 22.6503 20.4144 23.9553C21.192 22.6235 20.1342 22.7802 20.0918 22.9641C20.5983 21.8401 20.4129 20.2447 19.959 20.8528C20.229 19.6607 20.3862 16.4663 19.556 17.0332C20.0592 15.786 20.5107 11.3285 18.3241 13.0285C17.439 13.0412 15.9047 13.3497 15.1807 13.7102C17.4531 14.9632 14.9515 14.1628 14.0251 13.9633C13.9049 15.1228 12.9887 14.6222 11.8433 14.6334C13.6733 14.8596 10.9523 16.5043 9.90465 15.8653C8.54129 16.5159 11.0798 18.1421 9.93144 18.6453C10.073 19.4019 7.84404 18.3712 8.01817 20.1219C6.69572 19.5644 7.83716 22.1977 8.49893 21.3068C10.7489 21.9165 10.0828 23.3037 10.1392 24.6229C9.77287 25.3907 8.32914 22.8172 9.81812 22.9359C8.64301 21.0281 8.51884 22.2459 7.54284 23.1325C7.31658 23.1962 10.0317 24.3937 8.3277 24.9849C9.82681 25.217 9.87062 26.5293 10.1762 27.3594C11.0769 28.2981 10.8915 26.3226 11.9707 27.4513C11.2876 26.4457 8.35593 24.6186 10.7163 25.2043C10.7036 24.1932 10.2891 23.3772 11.0131 23.3967C11.7303 22.1 10.2623 26.5955 11.8773 24.9469C12.324 24.7518 12.4359 23.6487 13.2392 25.0515C14.4056 26.1998 13.6606 27.031 12.0145 25.979C12.3084 26.9789 14.2163 27.3351 13.8572 28.898C14.2373 30.2725 14.7691 29.7661 15.2328 29.6868C15.5963 31.0219 15.803 30.0405 15.82 29.4041C17.4842 29.7607 17.094 30.7446 17.6156 31.4321C18.7625 31.9494 15.9739 27.9234 17.9425 30.2215C20.014 32.0924 18.7201 32.8729 16.8608 32.5732C18.0374 32.4783 18.4161 34.1642 19.8884 34.1049C21.2304 34.7438 22.1398 37.1961 19.8261 36.1749C19.0242 35.4509 16.1831 34.5585 18.504 35.9345C20.645 36.9272 22.3476 37.5198 24.4136 38.7659C25.8914 39.8208 26.5303 41.0296 27.0904 41.2688C25.8476 41.8626 23.346 40.795 25.2039 40.4684C24.0443 40.2577 22.7407 39.6709 23.8507 41.1146C24.7952 41.9038 27.195 41.8202 27.6265 41.9093C27.2616 42.7126 26.6353 42.7763 27.6406 42.8386C26.5191 43.4366 28.0012 43.53 28.1044 43.8707ZM25.8106 37.3927C25.1275 36.6785 24.9508 35.3422 25.689 36.5043C26.068 36.6571 26.901 38.6895 25.8106 37.3927ZM33.2816 42.1384C33.7073 42.1102 33.2943 42.4621 33.2816 42.1384ZM24.7333 35.642C24.9791 36.4746 24.7061 34.5628 24.7333 35.642ZM23.9908 34.6436C25.0725 35.1131 23.131 32.9848 23.9908 34.6436ZM14.991 28.4328C15.496 28.2981 15.2401 29.2951 14.991 28.4328ZM22.1539 32.3143C22.5174 33.2903 22.4634 31.1504 22.1539 32.3143ZM17.094 28.7959C17.8394 29.3986 16.7377 28.154 17.094 28.7959ZM21.4353 30.1875C20.6222 28.3662 22.0123 29.1919 21.6163 30.4858L21.4353 30.1875ZM13.9477 25.1942C13.5842 24.5961 12.9832 22.8425 13.1769 22.3067C13.3507 23.1792 15.0308 26.0597 13.9998 23.5003C12.8616 21.355 15.3617 24.1957 15.6191 24.7319C15.7393 25.2637 14.9161 24.5863 15.4732 25.8349C14.4567 24.4137 14.8737 26.6198 13.9477 25.1942ZM11.634 23.5991C12.1629 24.5523 11.7289 22.209 11.634 23.5991ZM12.6748 23.9582C13.5161 25.4204 13.1711 22.9091 12.6748 23.9582ZM10.1704 22.0211C9.30913 21.1638 8.68537 20.375 10.2113 21.4893C10.7981 21.5117 8.90475 19.6947 10.3528 20.9122C11.8744 21.1895 11.1037 23.4083 10.1704 22.0211ZM11.4856 21.987C11.9863 21.4907 11.7513 22.475 11.4856 21.987ZM12.2958 22.2459C13.2164 22.8425 11.5363 20.8246 12.2958 22.2459ZM10.6866 20.7088C8.18217 18.4784 13.8329 21.8737 11.0953 21.1215L10.6866 20.7088ZM17.8632 24.8774C16.7786 24.2283 17.5747 20.3029 17.9454 22.9869C18.9989 22.6459 17.8871 24.3742 18.672 24.3572C18.5493 25.4472 18.197 25.8393 17.8632 24.8774ZM20.5176 26.4471C20.7409 27.2562 20.6236 25.2637 20.5176 26.4471ZM20.0567 25.9902C20.1755 25.4856 20.0679 26.5858 20.0567 25.9902ZM11.1771 19.976C9.56797 17.7558 15.8537 22.2216 12.2082 20.539C11.8277 20.4387 11.3683 20.4032 11.1771 19.976ZM16.2892 22.6857C16.6288 22.9953 16.1368 20.8163 16.2892 22.6857ZM20.1697 25.1757C20.4694 24.111 20.1925 25.8802 20.1697 25.1757ZM11.4248 19.1289C12.3809 18.924 15.387 20.8076 12.6267 19.6665C12.32 19.3269 11.6651 19.4812 11.4248 19.1289ZM19.6364 23.2215C19.7385 21.3097 20.208 22.0804 19.6408 23.4959L19.6364 23.2215ZM12.1361 18.4632C12.5264 17.8915 11.1008 15.8794 12.341 17.7417C12.8772 18.1674 13.8923 18.4545 12.9959 18.634C14.4056 19.8772 12.6524 18.9707 12.1361 18.4632ZM19.2306 22.6249C19.4996 20.447 19.4684 23.9003 19.2306 22.6249ZM11.3216 16.4522C11.6199 16.3247 11.4798 16.8493 11.3216 16.4522ZM13.1726 17.5538C14.0508 18.6681 13.649 16.5539 13.1726 17.5538ZM18.3922 20.4568C18.491 21.0154 18.3878 20.0738 18.3922 20.4568ZM18.0895 19.7881C18.764 20.7341 17.3655 18.0005 18.0895 19.7881ZM17.6453 18.6156C18.0584 19.5434 17.524 17.8774 17.6453 18.6156ZM18.3694 17.439C17.8716 16.5637 18.9975 13.5785 19.1234 15.4298C18.5985 16.8721 18.9721 17.6783 19.3367 15.7437C20.0129 14.2221 19.1911 18.7488 18.3694 17.439ZM19.1133 13.0003C19.3298 12.7342 19.1614 13.3211 19.1133 13.0003ZM17.8705 37.4832C17.9085 37.6458 17.5762 37.2258 17.8705 37.4832ZM20.43 38.7771C21.8538 39.1434 21.8469 38.5562 20.5599 38.381C19.8685 37.7377 17.6837 37.0546 19.6393 38.3017C19.7682 38.6301 20.1769 38.6214 20.43 38.7771ZM15.3758 35.4197C16.1592 36.0055 18.3299 37.077 16.493 35.6434C17.1124 34.9234 15.3078 34.5404 15.9062 34.0582C14.3832 33.126 14.7039 33.2096 15.7719 33.2393C13.9419 32.4204 16.0361 32.4827 15.9373 32.0627C15.2317 31.9241 12.4315 30.8181 14.0791 32.1532C12.4047 31.3003 13.6801 32.4714 13.174 32.3484C11.4613 31.8817 14.6985 33.6523 12.9025 33.2125C13.8839 33.9901 15.5456 35.2065 13.3167 34.0354C13.0242 34.4582 14.9121 35.099 15.3758 35.4197ZM18.0526 36.9583C21.3068 38.0063 16.4561 35.6757 18.0526 36.9583ZM31.7557 45.2594C31.798 44.6132 31.3115 45.8107 31.7557 45.2594ZM33.1643 45.852C33.9151 45.1251 33.1954 47.0115 34.4086 45.6739C34.4212 44.7163 34.372 44.1509 33.0144 45.3144C32.6394 45.5226 32.4728 46.4033 33.1643 45.852ZM10.8068 31.8111C10.5762 30.9046 9.19039 30.9086 10.8068 31.8111ZM12.3099 32.7965C11.7513 31.8705 10.3173 31.9581 12.3099 32.7965ZM20.8669 37.9567C21.7028 38.6992 24.7036 38.5012 21.8809 38.0487C21.4635 37.4307 19.2281 37.5792 20.8669 37.9567ZM32.6282 45.2214C33.9137 44.1422 31.3824 45.7021 32.6282 45.2214ZM35.3024 47.0582C35.3107 46.7118 34.7481 47.2096 35.3024 47.0582ZM35.3067 46.5731C36.7305 45.0657 33.9278 46.6622 35.3067 46.5731ZM7.10733 28.7141C5.89421 26.9833 6.35361 26.2053 5.18285 24.7912C4.96057 23.7095 3.17473 21.2572 4.25934 23.8551C5.25199 25.3752 5.54631 27.7283 7.10733 28.7141ZM34.8596 46.0938C37.4803 44.401 33.7852 45.3571 34.8596 46.0938ZM36.8594 46.8772C38.1717 45.7513 36.0293 46.6423 36.8594 46.8772ZM10.3612 29.8975C10.7362 29.3389 9.39131 29.8255 10.3612 29.8975ZM36.442 46.3425C37.712 45.524 36.1495 45.6496 36.2118 46.4175L36.442 46.3425ZM19.2067 35.4791C19.1629 34.9248 18.5352 35.5258 19.2067 35.4791ZM20.2714 36.0916C19.9322 35.407 19.7512 36.1991 20.2714 36.0916ZM38.4798 46.8957C40.1074 45.7217 37.4944 46.6705 38.1391 47.1191L38.4798 46.8957ZM37.8564 46.5945C39.1828 45.4842 36.4576 47.0865 37.8564 46.5945ZM41.0407 48.7141C41.9306 48.1186 39.959 48.5219 41.0407 48.7141ZM11.1771 29.4946C12.3693 29.7617 15.9442 32.4316 13.8358 29.6799C12.7555 29.3603 13.4032 26.7201 12.3016 27.1867C13.0412 28.4226 12.9094 28.9472 11.3567 28.1696C9.40687 27.2164 10.2609 28.6406 10.6428 29.0337C10.1222 29.1525 11.3299 29.4848 11.1771 29.4946ZM5.74289 25.2028C5.95612 24.3188 3.77568 20.3438 4.71331 23.2103C5.05107 23.8113 5.01596 24.9494 5.74289 25.2028ZM15.7179 31.3528C15.6882 31.2793 15.1029 30.8395 15.7179 31.3528ZM17.2297 31.7051C17.2297 30.7689 15.5583 31.3246 17.2297 31.7051ZM30.3387 39.9678C30.0886 39.3284 29.3504 39.9536 30.3387 39.9678ZM30.9679 40.4272C30.8745 40.0695 30.6045 40.4967 30.9679 40.4272ZM36.1636 43.7009C36.6628 43.332 35.5399 43.6531 36.1636 43.7009ZM8.45658 25.8958C9.88618 25.3426 6.92488 25.5012 8.45658 25.8958ZM29.1846 38.9537C29.168 38.0288 28.2727 39.1843 29.1846 38.9537ZM7.89219 24.5791C8.80991 24.2696 7.04217 24.3756 7.89219 24.5791ZM10.5563 25.87C10.5407 25.5663 10.275 25.9863 10.5563 25.87ZM43.0604 45.8024C44.241 45.5635 46.9322 46.4033 47.3663 45.49C45.9323 45.4545 42.407 44.4774 42.2401 45.7217L42.554 45.7713L43.0604 45.8024ZM11.4034 26.0836C11.4248 25.146 10.6725 26.0485 11.4034 26.0836ZM4.39799 21.2235C4.07978 19.4374 3.1874 20.9531 4.39799 21.2235ZM6.06798 21.6435C6.08934 21.0693 4.53918 21.1273 6.06798 21.6435ZM7.02262 22.113C6.80758 22.3943 6.74677 21.8893 7.02262 22.113ZM13.031 25.9663C13.3141 25.7061 12.3609 25.7741 13.031 25.9663ZM6.38764 21.0552C6.2251 19.706 4.45157 20.8528 6.38764 21.0552ZM2.96114 18.8321C2.91299 18.2097 2.62736 19.0666 2.96114 18.8321ZM3.47159 18.4476C3.38832 17.7091 3.03319 18.5406 3.47159 18.4476ZM6.28592 20.1274C7.47659 19.6607 4.11779 19.16 6.04264 20.0398L6.28592 20.1274ZM43.964 43.4011C44.7261 42.7028 42.9967 43.185 43.964 43.4011ZM48.516 45.76C48.8216 44.8579 47.7467 45.8788 48.516 45.76ZM6.57408 18.6525C6.70006 17.7786 5.62958 18.8263 6.57408 18.6525ZM2.56799 15.9685C2.35295 14.7355 2.38264 12.5702 4.44035 13.3015C1.69408 13.8474 6.34239 16.7164 5.75556 14.4509C6.91076 14.5078 8.01528 13.7682 7.40853 14.8893C9.68526 14.6392 11.2622 12.6651 13.4611 12.9424C15.1735 12.7147 17.0458 12.5434 18.8914 11.8534C20.4086 11.7445 21.8693 10.111 21.0381 9.14229C18.9692 8.96707 16.8025 9.22591 14.516 9.68133C11.9819 10.2073 9.67983 11.2083 7.1229 11.6384C4.62968 11.9736 7.62357 12.5605 6.90931 12.6919C5.60967 13.1429 8.46056 13.447 6.74097 13.9235C5.67917 13.7215 4.57321 13.3565 5.02718 12.2365C2.64003 12.5478 0.541416 13.5375 2.42789 15.967L2.56799 15.9685ZM8.32227 13.0383C8.88086 10.9766 11.3201 14.7355 9.23853 13.3127C8.99091 13.1259 8.58075 12.9746 8.32227 13.0383ZM8.43087 12.0384C9.23853 11.4375 8.8595 12.3766 8.43087 12.0384ZM9.45611 12.0554C9.52996 11.1066 11.8052 12.5576 9.83116 12.3965L9.45611 12.0554ZM10.8589 11.4914C11.3723 10.8916 11.0077 12.0229 10.8589 11.4914ZM11.2184 11.251C12.0724 10.2258 16.0503 10.5962 13.1386 11.1504C12.358 10.5621 11.76 11.4969 11.2184 11.251ZM16.4108 10.4506C18.9917 11.4447 16.2823 7.64896 16.4108 10.4506ZM17.8846 10.4419C18.4233 9.03079 19.976 9.87501 18.1348 10.1577C18.1742 10.3091 18.0797 10.8876 17.8846 10.4419ZM5.99304 17.9285C7.60221 16.9427 4.28468 17.073 5.99304 17.9285ZM7.18372 18.2579C7.74811 17.6584 5.95612 18.0146 7.18372 18.2579ZM3.67685 15.7705C4.59602 15.0635 2.5879 15.5019 3.67685 15.7705ZM51.2029 45.5026C51.2297 44.6823 50.4999 45.8715 51.2029 45.5026ZM46.3736 42.2061C46.5108 41.2631 45.7527 42.2883 46.3736 42.2061ZM52.5308 45.8209C53.8163 45.8252 56.4265 45.4205 53.6295 45.4219C53.1897 45.49 51.0715 45.4759 52.5308 45.8209ZM8.23031 17.6794C9.27112 17.6088 9.85795 16.5325 8.02795 16.5933C5.19262 16.3008 10.5295 17.565 7.66448 17.203C7.28002 17.4575 8.20751 17.7503 8.23031 17.6794ZM9.14658 18.1435C9.03761 17.4759 8.82402 18.4983 9.14658 18.1435ZM10.2341 15.2445C10.6852 14.6844 9.60888 15.0946 10.2341 15.2445ZM6.77211 9.45905C8.63034 8.82842 11.1703 8.1185 12.0471 9.77039C11.1547 8.697 11.6865 7.63919 12.5293 9.21035C13.7214 10.7985 14.318 8.48776 13.5429 7.95451C14.427 9.05178 15.4309 9.57092 14.1341 8.02401C15.5442 6.32832 11.3129 8.24593 10.3514 8.22602C9.88908 8.43382 5.57455 9.32619 6.77211 9.45905ZM7.86106 7.37492C8.92032 6.57594 11.525 7.85133 9.8536 6.57992C9.68961 6.43584 6.19396 7.54434 7.86106 7.37492ZM11.7231 7.53457C12.9619 7.5657 11.1887 5.86856 12.665 6.63785C12.4232 5.84611 10.9454 5.69769 10.2229 5.38092C9.81414 6.10496 11.0541 7.54434 11.7231 7.53457ZM8.53839 4.02878C8.96702 3.44774 7.78612 4.32455 8.53839 4.02878ZM10.1168 4.40637C12.1148 4.1421 9.60743 3.54658 9.7135 4.38537L10.1168 4.40637ZM7.1696 2.1014C5.76244 0.264521 9.81559 2.40984 8.38562 0.486438C7.18227 -0.470737 6.02707 1.56561 7.1696 2.1014ZM25.2209 11.8238C25.866 10.6809 22.5583 10.2823 24.7868 11.419C24.9917 11.4871 24.9454 11.9027 25.2209 11.8238Z" fill="#424241"/>
<path d="M12.1225 54.3878C11.9799 54.9515 11.8914 55.8971 11.8582 57.2245C11.8582 57.4854 11.7408 57.6158 11.5054 57.6158C11.2699 57.6158 11.106 57.502 11.0132 57.2751C10.7611 56.6614 10.5221 56.2333 10.2944 55.989C10.0257 55.7037 9.66839 55.5311 9.2228 55.4724C8.74381 55.3964 7.55049 55.3587 5.64262 55.3587C5.20577 55.3587 4.91954 55.4051 4.78551 55.4979C4.70145 55.5564 4.65954 55.6826 4.65954 55.876V61.5873C4.65954 61.7808 4.78125 61.8727 5.02444 61.8648C5.77307 61.8561 6.85701 61.8052 8.27716 61.7133C8.55464 61.6792 8.74202 61.5891 8.8384 61.4419C8.93568 61.2948 9.03027 60.9149 9.12216 60.301C9.18066 59.9648 9.37858 59.8344 9.71479 59.9106C10.0003 59.9693 10.1229 60.0997 10.0808 60.301C9.84524 61.4446 9.76903 62.9322 9.85308 64.7645C9.86205 64.9826 9.72353 65.1007 9.4373 65.1176C9.20173 65.1429 9.0547 65.0167 8.99597 64.7392C8.77811 63.6887 8.37174 63.1274 7.77979 63.0555C7.18716 62.9846 6.22224 62.9488 4.88614 62.9488C4.73485 62.9488 4.65954 63.003 4.65954 63.1124V68.786C4.65954 69.2063 4.81442 69.4925 5.1253 69.6432C5.36961 69.7693 5.89477 69.883 6.70123 69.9839C7.11365 70.0258 7.29385 70.2071 7.2441 70.5258C7.19322 70.8033 6.82383 70.9127 6.13393 70.854C4.142 70.6939 2.49861 70.7027 1.20465 70.8795C0.842887 70.9293 0.662679 70.7822 0.662679 70.4382C0.662679 70.2192 0.842887 70.0932 1.20465 70.0598C2.02836 69.967 2.43988 69.244 2.43988 67.8913V57.0983C2.43988 56.5442 2.34104 56.1177 2.14402 55.8191C1.9461 55.5206 1.57829 55.2491 1.0408 55.0057C0.704593 54.8544 0.578626 54.6487 0.662679 54.3878C0.704593 54.2284 0.772059 54.1399 0.863956 54.1233C0.948009 54.0979 1.17125 54.1145 1.53189 54.1739C2.06176 54.258 3.31022 54.3001 5.2766 54.3001C7.59689 54.3001 9.60093 54.2492 11.2909 54.1486C11.8538 54.1145 12.1357 54.1609 12.1357 54.2869C12.1357 54.3212 12.1315 54.3544 12.1225 54.3878Z" fill="#424241"/>
<path d="M20.2988 70.3928C20.2988 70.729 20.1096 70.876 19.7315 70.8339C18.5722 70.7245 17.1346 70.7411 15.4201 70.8839C15.0752 70.9179 14.8634 70.9092 14.7829 70.8594C14.7031 70.8086 14.6637 70.6703 14.6637 70.4425C14.6637 70.2413 14.8923 70.0714 15.3502 69.9322C15.809 69.7939 16.0374 69.3797 16.0374 68.6907V57.2806C16.0374 56.5994 15.9386 56.0994 15.7415 55.7798C15.5436 55.4604 15.1969 55.2125 14.7013 55.0365C14.4404 54.9437 14.31 54.8133 14.31 54.6452C14.31 54.393 14.4991 54.2038 14.8773 54.0779C15.449 53.8929 16.0419 53.6076 16.6556 53.2205C17.1599 52.9177 17.4795 52.7671 17.6133 52.7671C17.9242 52.7671 18.0802 52.9807 18.0802 53.4097C18.0802 53.3765 18.0634 53.7968 18.0293 54.6705C18.0049 55.5023 17.9962 56.3217 18.0049 57.1291L18.0547 68.3876C18.0547 68.9007 18.1809 69.273 18.433 69.5041C18.6852 69.7351 19.1184 69.8885 19.7315 69.9638C20.1096 70.0057 20.2988 70.1485 20.2988 70.3928Z" fill="#424241"/>
<path d="M31.7019 69.6491C31.7019 69.826 31.3805 70.0922 30.7378 70.4493C30.0943 70.8066 29.5795 70.9852 29.1933 70.9852C28.8649 70.9852 28.5753 70.8258 28.3232 70.5062C28.071 70.1868 27.894 70.0275 27.7933 70.0275C27.718 70.0275 27.3188 70.1998 26.5955 70.5439C25.8733 70.8888 25.1458 71.0614 24.4146 71.0614C23.7256 71.0614 23.1494 70.8592 22.6872 70.4565C22.1829 70.0107 21.9307 69.4057 21.9307 68.6405C21.9307 67.1863 23.5952 66.1442 26.9239 65.514C27.4948 65.4046 27.7855 65.1733 27.7933 64.8205L27.8189 64.0133C27.8695 62.6351 27.2601 61.9461 25.9906 61.9461C25.629 61.9461 25.2868 62.2691 24.9627 62.9162C24.6397 63.5642 24.1748 63.9125 23.5696 63.9634C22.8806 64.0299 22.5357 63.7401 22.5357 63.093C22.5357 62.6893 23.0487 62.2193 24.0739 61.6807C25.15 61.1179 26.1842 60.8359 27.176 60.8359C28.8817 60.8359 29.7265 61.6475 29.7099 63.2699L29.6591 68.4636C29.6512 69.0101 29.8825 69.2831 30.3526 69.2831C30.4453 69.2831 30.6222 69.2622 30.8822 69.2201C31.1433 69.1782 31.2946 69.1571 31.3368 69.1571C31.5802 69.1571 31.7019 69.3216 31.7019 69.6491ZM27.8189 66.7747C27.8276 66.5645 27.7785 66.4253 27.6734 66.3587C27.5683 66.2915 27.4029 66.2783 27.176 66.3204C25.15 66.682 24.1372 67.342 24.1372 68.3C24.1372 69.2665 24.6623 69.7498 25.7131 69.7498C26.1333 69.7498 26.5668 69.6702 27.0115 69.5108C27.5333 69.3252 27.7933 69.1029 27.7933 68.842L27.8189 66.7747Z" fill="#424241"/>
<path d="M41.0754 68.1985C41.0754 69.0897 40.732 69.7982 40.0475 70.3233C39.3628 70.8487 38.4276 71.1114 37.2422 71.1114C36.4525 71.1114 35.6618 71.0274 34.8721 70.8592C34.1909 70.7077 33.796 70.5694 33.6866 70.4432C33.6192 70.3251 33.586 69.75 33.586 68.7158C33.586 68.2702 33.6866 68.0391 33.8888 68.0225C34.0903 67.997 34.2627 68.1066 34.4055 68.35C35.0357 69.4514 36.0531 70.0021 37.4567 70.0021C38.6412 70.0021 39.2341 69.5897 39.2341 68.7658C39.2341 68.4051 39.1001 68.1021 38.8304 67.8587C38.5361 67.5812 37.9655 67.2573 37.1162 66.8877C35.8886 66.3415 35.0691 65.8625 34.6576 65.4501C34.2118 65.0132 33.9894 64.4249 33.9894 63.685C33.9894 62.777 34.338 62.0714 35.0357 61.5671C35.6828 61.0794 36.5487 60.8359 37.6326 60.8359C38.3138 60.8359 38.9355 60.8902 39.4993 60.9998C40.1044 61.1092 40.4196 61.2432 40.4449 61.4032C40.5115 61.8735 40.6507 62.5546 40.8609 63.446C40.8862 63.5545 40.7679 63.6431 40.5079 63.7103C40.2304 63.769 40.0457 63.7226 39.9529 63.572C39.2892 62.4872 38.4487 61.9452 37.4313 61.9452C36.2799 61.9452 35.7039 62.3148 35.7039 63.0547C35.7039 63.4669 35.8597 63.7944 36.1706 64.0378C36.448 64.248 37.0994 64.5764 38.1248 65.022C39.2007 65.4841 39.9318 65.9002 40.3189 66.2695C40.8232 66.7485 41.0754 67.392 41.0754 68.1985Z" fill="#424241"/>
<path d="M55.9081 70.4051C55.9081 70.6992 55.7102 70.8552 55.3152 70.8718C54.7269 70.8805 53.9572 70.9224 53.0081 70.9977C52.5372 71.0905 52.201 71.032 51.9995 70.8218C50.6713 69.3929 49.5445 67.8965 48.6199 66.3329C48.5446 66.1989 48.4482 66.1314 48.3301 66.1314C48.1873 66.1314 47.9397 66.2576 47.5869 66.5098C47.191 66.7279 46.994 67.0394 46.994 67.4422C46.994 67.7284 47.0019 68.1399 47.0194 68.6786C47.0362 69.216 47.17 69.5688 47.4221 69.7369C47.599 69.8553 48.0071 69.9472 48.6453 70.0146C49.0402 70.0653 49.2381 70.2123 49.2381 70.4558C49.2381 70.6494 49.2065 70.7693 49.1435 70.8148C49.0805 70.8612 48.914 70.8718 48.6453 70.8464C47.8047 70.7711 46.3846 70.813 44.3841 70.9724C43.8798 71.0145 43.6066 70.9513 43.5645 70.7832C43.5479 70.7247 43.5391 70.6407 43.5391 70.5311C43.5391 70.2711 43.7958 70.0731 44.3088 69.9393C44.771 69.821 45.0021 69.279 45.0021 68.3125V57.2929C45.0021 56.6039 44.9349 56.1249 44.7999 55.8562C44.6152 55.5112 44.2281 55.2423 43.6398 55.0488C43.3632 54.9569 43.224 54.8265 43.224 54.6584C43.224 54.4141 43.4219 54.2249 43.8166 54.0911C44.4471 53.8808 45.0476 53.591 45.6194 53.2207C46.0818 52.9186 46.368 52.7671 46.4765 52.7671C46.8217 52.7671 46.994 52.9852 46.994 53.4229C46.994 53.3635 46.9898 53.7802 46.9808 54.6707C46.973 55.2844 46.9687 56.1083 46.9687 57.1423L46.994 65.0345C46.994 65.2532 47.0528 65.362 47.17 65.362C47.2962 65.362 47.4896 65.2532 47.7505 65.0345C48.4482 64.488 49.3056 63.7737 50.3221 62.891C50.5242 62.681 50.6249 62.5129 50.6249 62.3867C50.6249 62.1601 50.2844 61.9999 49.6041 61.908C49.3098 61.8737 49.1707 61.71 49.1872 61.4157C49.2126 61.1217 49.3598 60.9955 49.6286 61.0376C50.2344 61.1217 51.1171 61.1681 52.2761 61.1768C53.0835 61.1847 53.8863 61.1891 54.6849 61.1891C54.9449 61.1979 55.0754 61.3528 55.0754 61.6558C55.0754 61.9411 54.8696 62.0969 54.4581 62.1225C53.8101 62.1469 53.2007 62.2939 52.63 62.5636C51.8314 62.9244 50.9777 63.5592 50.0699 64.4672C50.0033 64.5178 49.969 64.5808 49.969 64.6561C49.969 64.7736 50.1118 65.0556 50.3983 65.5011C51.4488 67.0981 52.4409 68.3038 53.3733 69.1197C53.9704 69.632 54.5289 69.8885 55.0498 69.8885C55.4369 69.8885 55.6768 69.9156 55.7687 69.9707C55.8617 70.0252 55.9081 70.1704 55.9081 70.4051Z" fill="#424241"/>
</svg>
