<svg width="80" height="79" viewBox="0 0 80 79" fill="none" xmlns="http://www.w3.org/2000/svg">
<g opacity="0.95">
<path d="M24 23.7L26.1618 22.1582C25.4846 21.2323 24.2801 20.843 23.1796 21.1944C22.079 21.5458 21.3333 22.5578 21.3333 23.7H24ZM40 73.7333C20.8541 73.7333 5.33333 58.4068 5.33333 39.5H0C0 61.3151 17.9086 79 40 79V73.7333ZM74.6667 39.5C74.6667 58.4068 59.1461 73.7333 40 73.7333V79C62.0912 79 80 61.3151 80 39.5H74.6667ZM40 5.26667C59.1461 5.26667 74.6667 20.5935 74.6667 39.5H80C80 17.6847 62.0912 0 40 0V5.26667ZM40 0C17.9086 0 0 17.6847 0 39.5H5.33333C5.33333 20.5935 20.8541 5.26667 40 5.26667V0ZM26.6667 63.2V23.7H21.3333V63.2H26.6667ZM21.8382 25.2418L56.5051 72.6416L60.8283 69.5585L26.1618 22.1582L21.8382 25.2418ZM53.3333 21.0667V52.6667H58.6667V21.0667H53.3333Z" fill="#424241"/>
</g>
</svg>
