<svg width="85" height="85" viewBox="0 0 85 85" fill="none" xmlns="http://www.w3.org/2000/svg">
<path d="M62.3905 24.278V32.1573C62.3578 35.1023 61.1845 37.92 59.1174 40.0179C57.0502 42.1159 54.2502 43.3307 51.306 43.407H33.5832C31.2199 43.454 28.9687 44.4235 27.3109 46.1084C25.653 47.7933 24.72 50.0599 24.7114 52.4236V69.3193C24.7114 74.1271 28.8928 76.9562 33.5832 78.3359C39.353 80.1404 45.5362 80.1404 51.306 78.3359C55.773 77.0426 60.1779 74.4397 60.1779 69.3193V62.5546H42.4548V60.3005H69.0495C74.2063 60.3005 76.1279 56.7034 77.9214 51.3046C79.742 45.4314 79.742 39.1447 77.9214 33.2716C76.6464 28.1378 74.213 24.2756 69.0495 24.2756L62.3905 24.278ZM52.4227 67.0638C53.0941 67.0535 53.7534 67.2432 54.3166 67.6089C54.8798 67.9746 55.3214 68.4997 55.5851 69.1172C55.8487 69.7348 55.9226 70.4169 55.7972 71.0766C55.6718 71.7363 55.3528 72.3437 54.8809 72.8215C54.4091 73.2992 53.8056 73.6257 53.1475 73.7592C52.4894 73.8928 51.8065 73.8274 51.1857 73.5713C50.5649 73.3153 50.0344 72.8803 49.6618 72.3217C49.2891 71.763 49.0913 71.1061 49.0933 70.4346C49.0904 69.9946 49.1743 69.5584 49.34 69.1508C49.5058 68.7432 49.7503 68.3723 50.0595 68.0593C50.3687 67.7463 50.7365 67.4972 51.142 67.3264C51.5475 67.1556 51.9827 67.0664 52.4227 67.0638Z" fill="#424241"/>
<path d="M42.062 5.31265C39.2204 5.31571 36.3842 5.55784 33.5832 6.03648C26.0746 7.36301 24.7114 10.1396 24.7114 15.2598V22.0229H42.4551V24.2783H18.0524C15.4408 24.2304 12.8962 25.1069 10.868 26.7529C8.83987 28.3989 7.45851 30.7086 6.96788 33.2742C5.3023 39.1698 5.3023 45.4116 6.96788 51.3072C8.22907 56.5602 11.2413 60.3031 16.3976 60.3031H22.4984V52.1955C22.5632 49.2817 23.7537 46.5061 25.8203 44.451C27.8868 42.3958 30.6689 41.2207 33.583 41.172H51.3057C52.4805 41.1632 53.642 40.9229 54.7238 40.4649C55.8056 40.0069 56.7866 39.3401 57.6105 38.5027C58.4345 37.6654 59.0853 36.6738 59.5258 35.5847C59.9663 34.4956 60.1878 33.3304 60.1776 32.1557V15.2603C60.0286 12.922 59.0555 10.7122 57.4312 9.02352C55.8069 7.33486 53.6365 6.27669 51.3057 6.03701C48.2502 5.53745 45.1581 5.29515 42.062 5.31265ZM32.4663 10.7521C33.1368 10.7417 33.7953 10.931 34.3581 11.2958C34.9208 11.6605 35.3624 12.1844 35.6266 12.8008C35.8909 13.4171 35.966 14.0981 35.8422 14.7572C35.7185 15.4164 35.4016 16.0238 34.9318 16.5024C34.462 16.9809 33.8605 17.309 33.2038 17.4449C32.5471 17.5808 31.8648 17.5184 31.2437 17.2655C30.6226 17.0127 30.0906 16.5809 29.7155 16.025C29.3404 15.4691 29.139 14.8142 29.1369 14.1436C29.1304 13.2529 29.477 12.3958 30.1011 11.7601C30.7251 11.1245 31.5756 10.762 32.4663 10.7521Z" fill="#424241"/>
</svg>
