<svg width="111" height="67" viewBox="0 0 111 67" fill="none" xmlns="http://www.w3.org/2000/svg">
<path d="M55.5 0.5C40.7 0.5 31.45 7.83333 27.75 22.5C33.3 15.1667 39.775 12.4167 47.175 14.25C51.3976 15.295 54.4131 18.3292 57.757 21.6933C63.2006 27.1658 69.4953 33.5 83.25 33.5C98.05 33.5 107.3 26.1667 111 11.5C105.45 18.8333 98.975 21.5833 91.575 19.75C87.3524 18.705 84.3369 15.6708 80.993 12.3067C75.554 6.83416 69.2594 0.5 55.5 0.5ZM27.75 33.5C12.95 33.5 3.7 40.8333 0 55.5C5.55 48.1667 12.025 45.4167 19.425 47.25C23.6476 48.295 26.6631 51.3292 30.007 54.6933C35.4506 60.1658 41.7453 66.5 55.5 66.5C70.3 66.5 79.55 59.1667 83.25 44.5C77.7 51.8333 71.225 54.5833 63.825 52.75C59.6024 51.705 56.5869 48.6708 53.243 45.3067C47.804 39.8342 41.5094 33.5 27.75 33.5Z" fill="#424241"/>
</svg>
